<svg width="150" height="32" viewBox="0 0 150 32" fill="none" xmlns="http://www.w3.org/2000/svg">
<rect width="32" height="32" rx="8" fill="#0061FE"/>
<path d="M9.06767 14.0723C9.05289 14.3533 9.27716 14.5857 9.55591 14.5857H10.299C10.569 14.5857 10.7879 14.3676 10.7879 14.0985C10.7879 13.8295 10.569 13.6114 10.299 13.6114L9.5836 13.6114C9.32768 13.6114 9.08106 13.8177 9.06767 14.0723Z" fill="white"/>
<path d="M9.32325 19.2517C9.06575 19.2517 8.81764 19.4592 8.80415 19.7155C8.78927 19.9982 9.01492 20.232 9.29541 20.232H14.2213V20.2326H15.1991V19.2526H14.1283V19.2517H9.32325Z" fill="white"/>
<path d="M11.1305 21.1166C10.873 21.1166 10.6249 21.3242 10.6114 21.5804C10.5966 21.8631 10.8222 22.097 11.1027 22.097H15.1991V21.1164L11.1305 21.1166Z" fill="white"/>
<path d="M14.1609 8.00237H9.56925C9.31175 8.00237 9.06357 8.20996 9.05013 8.4662C9.03528 8.7489 9.26092 8.98271 9.54139 8.98271H14.2213V9.87H8.17084C7.91326 9.87 7.66516 10.0776 7.65174 10.3339C7.63681 10.6166 7.86246 10.8504 8.14295 10.8504H14.2213V11.7352H11.1305C10.873 11.7352 10.6249 11.9428 10.6114 12.199C10.5966 12.4817 10.8222 12.7156 11.1027 12.7156H14.2213V13.6114H11.7353C11.4933 13.6114 11.2677 13.7736 11.2263 14.0112C11.1727 14.3187 11.4089 14.5857 11.7076 14.5857H15.1991V8.97434H16.0125V14.5857H18.4308C21.5188 14.5857 24.0222 16.4823 24.0222 19.5592V23.0257H9.1575C8.91541 23.0257 8.68987 23.188 8.64843 23.4255C8.59489 23.7331 8.83106 24 9.12971 24H25V19.2359C25 15.7994 22.2042 13.6114 18.7553 13.6114H16.9903L16.9904 8.5148C16.9904 8.44232 16.9742 8.3721 16.9471 8.30714C16.9444 8.30025 16.9414 8.29362 16.9383 8.28688C16.929 8.26686 16.9185 8.24774 16.9068 8.22912C16.9021 8.22162 16.8976 8.21409 16.8924 8.20685C16.8768 8.18439 16.8594 8.16352 16.8404 8.14398C16.8398 8.14344 16.8394 8.14288 16.8389 8.14232C16.7723 8.0743 16.6877 8.0247 16.5891 8.00763C16.5718 8.00462 16.5552 8.00572 16.5382 8.00452C16.5233 8.00314 16.5089 8.00002 16.4936 8.00002L14.1848 8C14.1767 8 14.1689 8.00197 14.1609 8.00237Z" fill="white"/>
<path d="M9.3233 15.4744C9.0797 15.4744 8.85278 15.6376 8.81114 15.8768C8.75724 16.1862 8.99484 16.4548 9.29542 16.4548H14.2213V16.4551H15.1991V16.4487H18.0292C20.3089 16.4487 22.1571 17.6925 22.1571 19.964V21.1094L17.0698 21.1166V17.8744C17.0698 17.6333 16.907 17.4086 16.6685 17.3673C16.3599 17.3138 16.092 17.5491 16.092 17.8468V22.0909L23.1349 22.0837V19.7905C23.1349 17.0767 20.927 15.4744 18.2033 15.4744H9.3233Z" fill="white"/>
<path d="M6.51664 9.89819C6.26073 9.89817 6.01413 10.1045 6.00069 10.3591C5.98594 10.6401 6.2102 10.8725 6.48893 10.8725H6.68813C6.95815 10.8725 7.17709 10.6544 7.17709 10.3854C7.17709 10.1163 6.95815 9.89819 6.68818 9.89819H6.51664Z" fill="white"/>
<path d="M8.08496 21.5907C8.07013 21.8716 8.29437 22.1041 8.5731 22.1041H9.31628C9.58631 22.1041 9.8052 21.886 9.8052 21.6169C9.8052 21.3479 9.58631 21.1298 9.31628 21.1298L8.60086 21.1298C8.34497 21.1298 8.09835 21.3361 8.08496 21.5907Z" fill="white"/>
<path d="M11.1536 17.3596C10.8961 17.3596 10.648 17.5672 10.6345 17.8234C10.6196 18.1061 10.8452 18.34 11.1257 18.34H15.1991V17.3596H11.1536Z" fill="white"/>
<path d="M42.6459 18.0787C42.6459 19.0365 42.9228 19.801 43.4774 20.3719C44.0316 20.9431 44.7203 21.2285 45.5433 21.2285C46.3662 21.2285 47.0552 20.9431 47.6094 20.3719C48.164 19.801 48.4409 19.0365 48.4409 18.0787C48.4409 17.1213 48.164 16.3572 47.6094 15.786C47.0552 15.2151 46.3662 14.9293 45.5433 14.9293C44.7203 14.9293 44.0316 15.2151 43.4774 15.786C42.9228 16.3572 42.6459 17.1213 42.6459 18.0787ZM45.9212 24C45.4174 24 44.9639 23.9372 44.5607 23.811C44.1575 23.6851 43.8132 23.5383 43.5278 23.3703C43.1913 23.1855 42.8977 22.9756 42.6459 22.7401L42.1417 23.8741H40V8.00001H42.8977V13.2915C43.1328 13.0897 43.4016 12.9053 43.704 12.7373C43.9724 12.6029 44.2877 12.4724 44.649 12.3465C45.01 12.2206 45.4341 12.1575 45.9212 12.1575C46.6435 12.1575 47.3325 12.3047 47.9874 12.5986C48.6427 12.8926 49.2178 13.3039 49.7135 13.8333C50.2089 14.3624 50.6035 14.9882 50.8979 15.7105C51.1915 16.4327 51.3386 17.222 51.3386 18.0787C51.3386 18.9354 51.1915 19.7254 50.8979 20.4474C50.6035 21.1697 50.2089 21.7955 49.7135 22.3246C49.2178 22.8536 48.6427 23.2653 47.9874 23.5593C47.3325 23.8532 46.6435 24 45.9212 24Z" fill="white"/>
<path d="M56.6297 23.8741H53.7321V8H56.6297V23.8741Z" fill="white"/>
<path d="M64.264 24C63.575 24 62.9452 23.8869 62.3744 23.6599C61.8031 23.433 61.3117 23.1057 60.9004 22.6774C60.4884 22.2491 60.1695 21.7324 59.943 21.1275C59.716 20.5229 59.6026 19.8425 59.6026 19.0869V12.2834H62.5003V18.7088C62.5003 19.4649 62.7226 20.0737 63.1679 20.5357C63.613 20.9977 64.1884 21.2285 64.8941 21.2285C65.5997 21.2285 66.1748 20.9977 66.6199 20.5357C67.0648 20.0737 67.2879 19.4649 67.2879 18.7088V12.2834H70.1852V23.8741H68.0435L67.5397 22.7401C67.2538 22.9756 66.9432 23.1855 66.6074 23.3703C66.3216 23.5383 65.9773 23.6851 65.5742 23.811C65.1713 23.9372 64.7342 24 64.264 24Z" fill="white"/>
<path d="M78.3748 14.9294C77.6188 14.9294 77.0015 15.1477 76.5228 15.5843C76.0441 16.0215 75.7374 16.5587 75.603 17.197H81.1462C81.0115 16.5587 80.7055 16.0215 80.2264 15.5843C79.7478 15.1477 79.1304 14.9294 78.3748 14.9294ZM83.5401 20.3467C83.3886 20.7836 83.1578 21.2201 82.8472 21.6569C82.5362 22.0938 82.1582 22.4846 81.7132 22.8285C81.2678 23.1731 80.764 23.4543 80.2013 23.6727C79.6385 23.8908 79.0297 24 78.3748 24C77.5848 24 76.8416 23.8451 76.1448 23.5341C75.4473 23.2235 74.8346 22.7994 74.3052 22.2615C73.7762 21.7243 73.356 21.0984 73.0454 20.3843C72.7344 19.6705 72.5794 18.9021 72.5794 18.0788C72.5794 17.2561 72.7344 16.4874 73.0454 15.7733C73.356 15.0595 73.7762 14.434 74.3052 13.8961C74.8346 13.3589 75.4473 12.9348 76.1448 12.6238C76.8416 12.3132 77.5848 12.1575 78.3748 12.1575C79.1304 12.1575 79.8442 12.3005 80.5165 12.5859C81.1881 12.8717 81.7764 13.2749 82.2802 13.7954C82.7841 14.3163 83.183 14.9417 83.4769 15.6726C83.7705 16.4033 83.918 17.2058 83.918 18.0788C83.918 18.2135 83.9092 18.3433 83.8929 18.4695C83.8759 18.5954 83.8588 18.7174 83.8425 18.8348C83.8255 18.9695 83.8085 19.0954 83.7918 19.2128H75.7289C75.8632 19.784 76.1487 20.2627 76.5856 20.6489C77.0224 21.0357 77.6188 21.2286 78.3748 21.2286C78.761 21.2286 79.084 21.1867 79.3446 21.1023C79.6048 21.0186 79.8275 20.9179 80.0123 20.8002C80.214 20.6658 80.3818 20.5148 80.5165 20.3467H83.5401Z" fill="white"/>
<path d="M93.8698 20.7247C93.8698 21.1594 93.7776 21.5757 93.5929 21.9732C93.4085 22.3714 93.1518 22.7196 92.8241 23.0193C92.4958 23.3185 92.1001 23.5565 91.6366 23.7327C91.1732 23.9089 90.6587 23.9972 90.0927 23.9972C89.4857 23.9972 88.9425 23.9089 88.4623 23.7327C87.9826 23.5565 87.5706 23.3125 87.2259 23.0008C86.8816 22.6891 86.6089 22.3282 86.4079 21.9179C86.2069 21.508 86.0898 21.069 86.0572 20.6017H87.189C87.3202 21.307 87.6135 21.8609 88.0688 22.2625C88.524 22.6643 89.1985 22.8653 90.0927 22.8653C90.9129 22.8653 91.5586 22.6523 92.0306 22.2257C92.5018 21.7991 92.7379 21.2988 92.7379 20.7247C92.7379 20.2244 92.5781 19.8386 92.2582 19.568C91.938 19.2975 91.5423 19.0904 91.0707 18.9468C90.5991 18.8032 90.0825 18.678 89.5204 18.5717C88.9588 18.4649 88.4418 18.3089 87.9705 18.104C87.4986 17.899 87.105 17.6118 86.7894 17.2427C86.4735 16.8736 86.3157 16.353 86.3157 15.6804C86.3157 15.2786 86.3997 14.8928 86.5678 14.5237C86.7359 14.1546 86.9738 13.833 87.2816 13.5578C87.589 13.2834 87.9705 13.066 88.4255 12.9057C88.8807 12.7458 89.3952 12.666 89.9697 12.666C90.5111 12.666 91.003 12.7543 91.4459 12.9306C91.8891 13.1071 92.2784 13.3365 92.615 13.6195C92.9511 13.9025 93.2156 14.2369 93.4085 14.6223C93.601 15.0077 93.7138 15.4056 93.7468 15.8155H92.615C92.4833 15.2417 92.1983 14.7616 91.7597 14.3762C91.321 13.9907 90.7243 13.7979 89.9697 13.7979C89.1495 13.7979 88.524 13.9865 88.0936 14.3638C87.6628 14.7411 87.4475 15.1801 87.4475 15.6804C87.4475 16.1644 87.6075 16.5293 87.9273 16.7753C88.2471 17.0214 88.641 17.2119 89.1084 17.3473C89.5761 17.4827 90.0927 17.6058 90.6587 17.7164C91.2246 17.8271 91.7412 17.9869 92.2089 18.1962C92.6763 18.4054 93.0702 18.7029 93.39 19.0883C93.7099 19.4737 93.8698 20.0191 93.8698 20.7247Z" fill="white"/>
<path d="M101.664 12.666C102.287 12.666 102.871 12.7787 103.417 13.0043C103.962 13.2301 104.43 13.5478 104.819 13.9577C105.209 14.368 105.517 14.8602 105.742 15.4342C105.968 16.0083 106.08 16.6398 106.08 17.3288V23.8741H104.949V17.3288C104.949 16.8284 104.86 16.3629 104.684 15.9325C104.507 15.5019 104.264 15.1265 103.952 14.8066C103.64 14.4868 103.279 14.2389 102.869 14.0623C102.459 13.8861 102.016 13.7978 101.541 13.7978C101.04 13.7978 100.575 13.8861 100.144 14.0623C99.7134 14.2389 99.3404 14.4868 99.0244 14.8066C98.7089 15.1265 98.4628 15.4998 98.2866 15.9264C98.11 16.3529 98.022 16.8203 98.022 17.3288V23.8741H96.8778V8.00318H98.022V14.4255H98.1451C98.3497 14.1052 98.6163 13.8102 98.9447 13.5393C99.2315 13.3181 99.5968 13.117 100.04 12.9365C100.483 12.7564 101.024 12.666 101.664 12.666Z" fill="white"/>
<path d="M114.145 13.7979C113.644 13.7979 113.171 13.8943 112.724 14.0869C112.276 14.2797 111.877 14.5485 111.524 14.8928C111.172 15.2375 110.872 15.6495 110.626 16.1293C110.38 16.609 110.208 17.1321 110.109 17.698H118.045C117.979 17.1239 117.833 16.5991 117.608 16.1232C117.382 15.6477 117.097 15.2375 116.753 14.8928C116.408 14.5485 116.013 14.2797 115.566 14.0869C115.118 13.8943 114.645 13.7979 114.145 13.7979ZM118.808 21.1059C118.66 21.4587 118.451 21.8073 118.18 22.1516C117.909 22.4962 117.585 22.8058 117.208 23.0806C116.831 23.3554 116.398 23.577 115.91 23.7451C115.422 23.9132 114.874 23.9972 114.268 23.9972C113.513 23.9972 112.812 23.8557 112.164 23.5728C111.516 23.2898 110.956 22.8962 110.485 22.3916C110.013 21.8871 109.644 21.2906 109.377 20.6017C109.111 19.9127 108.977 19.1539 108.977 18.3256C108.977 17.5054 109.111 16.7505 109.377 16.0616C109.644 15.3725 110.009 14.7758 110.472 14.2716C110.935 13.767 111.483 13.3734 112.115 13.0905C112.746 12.8075 113.423 12.666 114.145 12.666C114.834 12.666 115.484 12.7994 116.095 13.066C116.706 13.3323 117.239 13.7014 117.694 14.173C118.149 14.645 118.51 15.2045 118.777 15.8523C119.043 16.5006 119.177 17.2019 119.177 17.9565C119.177 18.0876 119.169 18.2047 119.152 18.3071C119.136 18.4096 119.119 18.5018 119.103 18.5837C119.086 18.666 119.07 18.7479 119.054 18.8298H110.109C110.175 19.4369 110.323 19.9886 110.552 20.4847C110.782 20.9811 111.077 21.4055 111.438 21.758C111.799 22.1108 112.217 22.3835 112.693 22.576C113.169 22.7689 113.694 22.8653 114.268 22.8653C114.669 22.8653 115.039 22.8101 115.375 22.699C115.711 22.5884 116.011 22.4452 116.273 22.2686C116.536 22.0923 116.759 21.8995 116.944 21.6902C117.128 21.4811 117.286 21.2864 117.417 21.1059H118.808Z" fill="white"/>
<path d="M126.714 13.7979C126.214 13.7979 125.74 13.8943 125.293 14.0869C124.846 14.2797 124.447 14.5485 124.094 14.8928C123.741 15.2375 123.442 15.6495 123.196 16.1293C122.95 16.609 122.777 17.1321 122.679 17.698H130.615C130.549 17.1239 130.403 16.5991 130.178 16.1232C129.952 15.6477 129.667 15.2375 129.323 14.8928C128.978 14.5485 128.582 14.2797 128.136 14.0869C127.688 13.8943 127.215 13.7979 126.714 13.7979ZM131.377 21.1059C131.23 21.4587 131.021 21.8073 130.75 22.1516C130.479 22.4962 130.155 22.8058 129.778 23.0806C129.4 23.3554 128.968 23.577 128.48 23.7451C127.992 23.9132 127.444 23.9972 126.837 23.9972C126.083 23.9972 125.382 23.8557 124.734 23.5728C124.086 23.2898 123.526 22.8962 123.054 22.3916C122.582 21.8871 122.213 21.2906 121.947 20.6017C121.68 19.9127 121.547 19.1539 121.547 18.3256C121.547 17.5054 121.68 16.7505 121.947 16.0616C122.213 15.3725 122.579 14.7758 123.042 14.2716C123.505 13.767 124.053 13.3734 124.684 13.0905C125.316 12.8075 125.993 12.666 126.714 12.666C127.403 12.666 128.053 12.7994 128.664 13.066C129.275 13.3323 129.809 13.7014 130.264 14.173C130.719 14.645 131.08 15.2045 131.346 15.8523C131.613 16.5006 131.746 17.2019 131.746 17.9565C131.746 18.0876 131.738 18.2047 131.722 18.3071C131.705 18.4096 131.689 18.5018 131.673 18.5837C131.656 18.666 131.64 18.7479 131.623 18.8298H122.679C122.744 19.4369 122.892 19.9886 123.122 20.4847C123.352 20.9811 123.647 21.4055 124.008 21.758C124.369 22.1108 124.787 22.3835 125.263 22.576C125.738 22.7689 126.263 22.8653 126.837 22.8653C127.239 22.8653 127.608 22.8101 127.945 22.699C128.281 22.5884 128.58 22.4452 128.843 22.2686C129.105 22.0923 129.329 21.8995 129.514 21.6902C129.698 21.4811 129.856 21.2864 129.987 21.1059H131.377Z" fill="white"/>
<path d="M135.634 13.9209H133.481V12.7891H134.489C135.326 12.7891 135.748 12.3667 135.757 11.5218V9.51622H136.766V12.7891H139.534V13.9209H136.766V20.7247C136.766 21.4793 136.958 22.0246 137.344 22.3608C137.729 22.6973 138.209 22.8653 138.783 22.8653C138.988 22.8653 139.172 22.849 139.337 22.816C139.402 22.7998 139.468 22.7753 139.534 22.7423V23.7511C139.452 23.8004 139.357 23.8415 139.251 23.8741C139.046 23.956 138.803 23.9972 138.525 23.9972C137.705 23.9972 137.018 23.7039 136.464 23.1174C135.91 22.5313 135.634 21.7335 135.634 20.7247V13.9209Z" fill="white"/>
<path d="M149.79 20.7247C149.79 21.1594 149.697 21.5757 149.513 21.9732C149.328 22.3714 149.072 22.7196 148.744 23.0193C148.416 23.3185 148.02 23.5565 147.556 23.7327C147.093 23.9089 146.578 23.9972 146.013 23.9972C145.405 23.9972 144.862 23.9089 144.382 23.7327C143.902 23.5565 143.49 23.3125 143.146 23.0008C142.801 22.6891 142.529 22.3282 142.328 21.9179C142.127 21.508 142.01 21.069 141.977 20.6017H143.109C143.24 21.307 143.533 21.8609 143.989 22.2625C144.444 22.6643 145.118 22.8653 146.013 22.8653C146.833 22.8653 147.478 22.6523 147.95 22.2257C148.422 21.7991 148.658 21.2988 148.658 20.7247C148.658 20.2244 148.498 19.8386 148.178 19.568C147.858 19.2975 147.462 19.0904 146.99 18.9468C146.519 18.8032 146.002 18.678 145.44 18.5717C144.879 18.4649 144.362 18.3089 143.89 18.104C143.418 17.899 143.025 17.6118 142.709 17.2427C142.393 16.8736 142.235 16.353 142.235 15.6804C142.235 15.2786 142.319 14.8928 142.488 14.5237C142.656 14.1546 142.894 13.833 143.201 13.5578C143.509 13.2834 143.89 13.066 144.345 12.9057C144.801 12.7458 145.315 12.666 145.89 12.666C146.431 12.666 146.923 12.7543 147.366 12.9306C147.809 13.1071 148.198 13.3365 148.535 13.6195C148.871 13.9025 149.135 14.2369 149.328 14.6223C149.521 15.0077 149.634 15.4056 149.667 15.8155H148.535C148.403 15.2417 148.118 14.7616 147.679 14.3762C147.241 13.9907 146.644 13.7979 145.89 13.7979C145.069 13.7979 144.444 13.9865 144.013 14.3638C143.583 14.7411 143.367 15.1801 143.367 15.6804C143.367 16.1644 143.527 16.5293 143.847 16.7753C144.167 17.0214 144.561 17.2119 145.028 17.3473C145.496 17.4827 146.013 17.6058 146.578 17.7164C147.144 17.8271 147.661 17.9869 148.129 18.1962C148.596 18.4054 148.99 18.7029 149.31 19.0883C149.63 19.4737 149.79 20.0191 149.79 20.7247Z" fill="white"/>
</svg>
